# xmcd
# 
# Track frame offsets:
#     150
#     25695
#     44230
#     71577
#     97075
#     123172
#     149090
#     174745
#     200125
#     224870
#     250585
#     278582
#     305502
# 
# Disc length: 4354
# 
# Revision: 5
# Processed by: cddbd v1.5.2PL0 Copyright (c) Steve Scherf et al.
# Submitted via: fre:ac v1.0.31
# 
DISCID=d311000d
DTITLE=GTS - RE-BIRTH2 disc1
DYEAR=2000
DGENRE=House
TTITLE0=SAVE THE BEST FOR LAST〈GTS MIX〉
TTITLE1=SHARE MY JOY〈D's RELENTLESS CLUB MIX〉
TTITLE2=GOOD TIMES〈GROW SOUND MIX〉
TTITLE3=FANTASY〈SH CLUB MIX〉
TTITLE4=SHARE MY JOY〈BC's RENDITION MIX〉
TTITLE5=THAT LADY〈TOP CLASS MIX〉
TTITLE6=SHINE IN MY LIFE〈SH CLUB MIX〉
TTITLE7=FUTURE CLASSIC〈LIGHT ON THE FLOOR MIX〉
TTITLE8=UNCONTROLLED LOVE〈CARNIVAL MIX〉
TTITLE9=SHINE IN MY LIFE〈DUB'S BEAUTIFUL REMIX〉
TTITLE10=THAT LADY〈BAYAKA"SUNSHINE"MIX〉
TTITLE11=FUTURE CLASSICS〈ORIENTA RHYTHM BANQUET MIX〉
TTITLE12=SHARE MY JOY〈THUNDERPUSS CLUB MIX〉
EXTD=YEAR: 2000
EXTT0=
EXTT1=
EXTT2=
EXTT3=
EXTT4=
EXTT5=
EXTT6=
EXTT7=
EXTT8=
EXTT9=
EXTT10=
EXTT11=
EXTT12=
PLAYORDER=
